Input #0, mp3, from 'public/assets/light.mp3':
  Metadata:
    major_brand     : isom
    minor_version   : 512
    compatible_brands: isomiso2avc1mp41
    encoder         : Lavf62.3.100
  Duration: 00:02:30.90, start: 0.025057, bitrate: 119 kb/s
  Stream #0:0: Audio: mp3 (mp3float), 44100 Hz, stereo, fltp, 119 kb/s, start 0.025057
    Metadata:
      encoder         : Lavc62.11
Stream mapping:
  Stream #0:0 -> #0:0 (mp3 (mp3float) -> pcm_s16le (native))
Press [q] to stop, [?] for help
Output #0, null, to 'pipe:':
  Metadata:
    major_brand     : isom
    minor_version   : 512
    compatible_brands: isomiso2avc1mp41
    encoder         : Lavf62.3.100
  Stream #0:0: Audio: pcm_s16le, 44100 Hz, stereo, s16, 1411 kb/s
    Metadata:
      encoder         : Lavc62.11.100 pcm_s16le
[out#0/null @ 0x95303c180] video:0KiB audio:25995KiB subtitle:0KiB other streams:0KiB global headers:0KiB muxing overhead: unknown
size=N/A time=00:02:30.89 bitrate=N/A speed=1.93e+03x elapsed=0:00:00.07    
